<?xml version="1.0" standalone="no"?><!DOCTYPE svg PUBLIC "-//W3C//DTD SVG 1.1//EN" "http://www.w3.org/Graphics/SVG/1.1/DTD/svg11.dtd"><svg t="1653290581807" class="icon" viewBox="0 0 1024 1024" version="1.1" xmlns="http://www.w3.org/2000/svg" p-id="23830" xmlns:xlink="http://www.w3.org/1999/xlink" width="128" height="128"><defs><style type="text/css">@font-face { font-family: feedback-iconfont; src: url("//at.alicdn.com/t/font_1031158_u69w8yhxdu.woff2?t=1630033759944") format("woff2"), url("//at.alicdn.com/t/font_1031158_u69w8yhxdu.woff?t=1630033759944") format("woff"), url("//at.alicdn.com/t/font_1031158_u69w8yhxdu.ttf?t=1630033759944") format("truetype"); }
</style></defs><path d="M889.290382 0H339.045322a32.614811 32.614811 0 0 0-32.58947 32.627482V273.690722h67.332986V65.267635h390.262697L595.87112 160.920008a32.665495 32.665495 0 0 0-16.472127 28.382741V810.935473H373.801509V682.959718h-67.345657v160.603237c0 29.485107 14.609509 44.081945 32.58947 44.081945h240.315659v103.723715a32.551457 32.551457 0 0 0 48.630786 28.382742l270.801765-153.951031A32.526115 32.526115 0 0 0 921.841838 834.744031v-802.065866A32.576798 32.576798 0 0 0 889.290382 0z" p-id="23831"></path><path d="M499.6739 478.109816a41.357709 41.357709 0 0 0-41.307026-41.408393H300.42452v-77.216262a17.739213 17.739213 0 0 0-28.103983-14.368763L109.347849 463.753723a17.739213 17.739213 0 0 0 0 28.750197l162.934676 118.649997A17.739213 17.739213 0 0 0 300.42452 596.797824v-77.292287h157.942354a41.357709 41.357709 0 0 0 41.307026-41.395721z" p-id="23832"></path></svg>