<?xml version="1.0" standalone="no"?><!DOCTYPE svg PUBLIC "-//W3C//DTD SVG 1.1//EN" "http://www.w3.org/Graphics/SVG/1.1/DTD/svg11.dtd"><svg t="1710145465783" class="icon" viewBox="0 0 1024 1024" version="1.1" xmlns="http://www.w3.org/2000/svg" p-id="52753" xmlns:xlink="http://www.w3.org/1999/xlink" width="200" height="200"><path d="M635.55 85c19.043 0 37.287 7.74 50.63 21.487 13.19 13.588 20.495 31.914 20.329 50.94l-0.009 0.672v57.435H900v65.268h-64.5l0.003 360.354C906.836 657.69 960 721.637 960 798c0 88.918-72.082 161-161 161-27.46 0-53.313-6.874-75.934-18.996L261.45 940c-38.793 0-70.314-31.504-70.94-70.607l-0.01-1.187V280.802H126v-65.268h193.5V158.1c-0.715-39.01 29.469-71.378 67.85-73.058l1.165-0.041H635.55zM799 697c-55.78 0-101 45.22-101 101s45.22 101 101 101 101-45.22 101-101-45.22-101-101-101z m-30.04-416H254.04v587.432a5.924 5.924 0 0 0 1.657 4.847 5.748 5.748 0 0 0 4.516 1.706l0.264-0.026 397.075 0.004C645.085 852.098 638 825.876 638 798c0-78.651 56.397-144.13 130.958-158.202L768.959 281z m5.42 465.657l25.12 25.119 25.12-25.12a8 8 0 0 1 11.313 0l14.91 14.91a8 8 0 0 1 0 11.314L825.724 798l25.12 25.12a8 8 0 0 1 0 11.313l-14.91 14.91a8 8 0 0 1-11.314 0l-25.12-25.119-25.12 25.12a8 8 0 0 1-11.313 0l-14.91-14.91a8 8 0 0 1 0-11.314L773.276 798l-25.12-25.12a8 8 0 0 1 0-11.313l14.91-14.91a8 8 0 0 1 11.314 0zM447 419v318h-64V419h64z m193 0v318h-64V419h64z m0.564-268.999H389.3a6.412 6.412 0 0 0-4.808 2.338 6.546 6.546 0 0 0-1.412 5.185l0.05 0.277V215H647v-58.499a6.533 6.533 0 0 0-1.885-4.596 6.404 6.404 0 0 0-4.55-1.904z" fill="#1976d2" p-id="52754"></path></svg>