<?xml version="1.0" standalone="no"?><!DOCTYPE svg PUBLIC "-//W3C//DTD SVG 1.1//EN" "http://www.w3.org/Graphics/SVG/1.1/DTD/svg11.dtd"><svg t="1710144457651" class="icon" viewBox="0 0 1024 1024" version="1.1" xmlns="http://www.w3.org/2000/svg" p-id="26454" xmlns:xlink="http://www.w3.org/1999/xlink" width="200" height="200"><path d="M323.4 205.5c13 0 23.6-10.6 23.6-23.6V87.6c0-13-10.6-23.6-23.6-23.6s-23.6 10.6-23.6 23.6v94.3c0 13 10.6 23.6 23.6 23.6zM417.7 205.5c13 0 23.6-10.6 23.6-23.6V87.6c0-13-10.6-23.6-23.6-23.6s-23.6 10.6-23.6 23.6v94.3c0 13 10.6 23.6 23.6 23.6zM512 205.5c13 0 23.6-10.6 23.6-23.6V87.6c0-13-10.6-23.6-23.6-23.6-13 0-23.6 10.6-23.6 23.6v94.3c0 13 10.6 23.6 23.6 23.6zM606.3 205.5c13 0 23.6-10.6 23.6-23.6V87.6c0-13-10.6-23.6-23.6-23.6-13 0-23.6 10.6-23.6 23.6v94.3c0 13 10.6 23.6 23.6 23.6zM700.6 205.5c13 0 23.6-10.6 23.6-23.6V87.6c0-13-10.6-23.6-23.6-23.6-13 0-23.6 10.6-23.6 23.6v94.3c0.1 13 10.7 23.6 23.6 23.6zM323.4 818.5c-13 0-23.6 10.6-23.6 23.6v94.3c0 13 10.6 23.6 23.6 23.6s23.6-10.6 23.6-23.6v-94.3c-0.1-13-10.7-23.6-23.6-23.6zM417.7 818.5c-13 0-23.6 10.6-23.6 23.6v94.3c0 13 10.6 23.6 23.6 23.6s23.6-10.6 23.6-23.6v-94.3c0-13-10.6-23.6-23.6-23.6zM512 818.5c-13 0-23.6 10.6-23.6 23.6v94.3c0 13 10.6 23.6 23.6 23.6 13 0 23.6-10.6 23.6-23.6v-94.3c0-13-10.6-23.6-23.6-23.6zM606.3 818.5c-13 0-23.6 10.6-23.6 23.6v94.3c0 13 10.6 23.6 23.6 23.6 13 0 23.6-10.6 23.6-23.6v-94.3c0-13-10.6-23.6-23.6-23.6zM700.6 818.5c-13 0-23.6 10.6-23.6 23.6v94.3c0 13 10.6 23.6 23.6 23.6 13 0 23.6-10.6 23.6-23.6v-94.3c0-13-10.6-23.6-23.6-23.6zM842.1 346.9h94.3c13 0 23.6-10.6 23.6-23.6 0-13-10.6-23.6-23.6-23.6h-94.3c-13 0-23.6 10.6-23.6 23.6 0 13 10.6 23.6 23.6 23.6zM936.4 394.1h-94.3c-13 0-23.6 10.6-23.6 23.6 0 13 10.6 23.6 23.6 23.6h94.3c13 0 23.6-10.6 23.6-23.6 0-13-10.6-23.6-23.6-23.6zM936.4 488.4h-94.3c-13 0-23.6 10.6-23.6 23.6 0 13 10.6 23.6 23.6 23.6h94.3c13 0 23.6-10.6 23.6-23.6 0-13-10.6-23.6-23.6-23.6zM936.4 582.7h-94.3c-13 0-23.6 10.6-23.6 23.6 0 13 10.6 23.6 23.6 23.6h94.3c13 0 23.6-10.6 23.6-23.6 0-13-10.6-23.6-23.6-23.6zM936.4 677.1h-94.3c-13 0-23.6 10.6-23.6 23.6 0 13 10.6 23.6 23.6 23.6h94.3c13 0 23.6-10.6 23.6-23.6 0-13-10.6-23.6-23.6-23.6zM181.9 299.8H87.6c-13 0-23.6 10.6-23.6 23.6 0 13 10.6 23.6 23.6 23.6h94.3c13 0 23.6-10.6 23.6-23.6 0-13-10.6-23.6-23.6-23.6zM181.9 394.1H87.6c-13 0-23.6 10.6-23.6 23.6 0 13 10.6 23.6 23.6 23.6h94.3c13 0 23.6-10.6 23.6-23.6 0-13-10.6-23.6-23.6-23.6zM181.9 488.4H87.6C74.6 488.4 64 499 64 512c0 13 10.6 23.6 23.6 23.6h94.3c13 0 23.6-10.6 23.6-23.6 0-13-10.6-23.6-23.6-23.6zM181.9 582.7H87.6c-13 0-23.6 10.6-23.6 23.6 0 13 10.6 23.6 23.6 23.6h94.3c13 0 23.6-10.6 23.6-23.6 0-13-10.6-23.6-23.6-23.6zM181.9 677.1H87.6c-13 0-23.6 10.6-23.6 23.6 0 13 10.6 23.6 23.6 23.6h94.3c13 0 23.6-10.6 23.6-23.6 0-13-10.6-23.6-23.6-23.6zM724.2 252.6H299.8c-25.9 0-47.2 21.2-47.2 47.2v424.4c0 25.9 21.2 47.2 47.2 47.2h424.4c25.9 0 47.2-21.2 47.2-47.2V299.8c0-25.9-21.3-47.2-47.2-47.2z m0 471.6H299.8V299.8h424.4v424.4z" fill="" p-id="26455"></path></svg>