<?xml version="1.0" standalone="no"?><!DOCTYPE svg PUBLIC "-//W3C//DTD SVG 1.1//EN" "http://www.w3.org/Graphics/SVG/1.1/DTD/svg11.dtd"><svg t="1710143435231" class="icon" viewBox="0 0 1024 1024" version="1.1" xmlns="http://www.w3.org/2000/svg" p-id="14899" xmlns:xlink="http://www.w3.org/1999/xlink" width="200" height="200"><path d="M804.00000031 144.00000031h-600c-31.99999969 0-55.99999969 24-56.00000062 55.99999969v624c0 31.99999969 24 55.99999969 56.00000062 55.99999969h319.99999969v-60h-319.99999969V363.99999969h591.99999938v144h60V200c0-31.99999969-24-55.99999969-51.99999938-55.99999969z m-8.00000062 159.99999938H204.00000031V204.00000031h591.99999938v99.99999938z" p-id="14900"></path><path d="M296 447.99999969h408v60H296zM296 588.00000031h244.00000031v60H296zM960.00000031 540.00000031c-124.00000031 115.99999969-228 276-260.00000062 360L512 708.00000031l48-40.00000031 108 84c43.99999969-52.00000031 144-156 280.00000031-240l12 28.00000031z" p-id="14901"></path></svg>