<?xml version="1.0" standalone="no"?><!DOCTYPE svg PUBLIC "-//W3C//DTD SVG 1.1//EN" "http://www.w3.org/Graphics/SVG/1.1/DTD/svg11.dtd"><svg t="1710143347525" class="icon" viewBox="0 0 1024 1024" version="1.1" xmlns="http://www.w3.org/2000/svg" p-id="10655" xmlns:xlink="http://www.w3.org/1999/xlink" width="200" height="200"><path d="M659.456 786.432L544.768 598.016c-4.096-8.192-8.192-12.288-16.384-12.288-4.096 0-8.192 4.096-12.288 4.096l-57.344 57.344-61.44-90.112c-4.096-8.192-8.192-12.288-16.384-12.288s-12.288 4.096-16.384 8.192L212.992 778.24c0 4.096-4.096 8.192-4.096 12.288 0 12.288 8.192 20.48 20.48 20.48h413.696c12.288 0 20.48-8.192 20.48-20.48l-4.096-4.096zM266.24 774.144l114.688-172.032 57.344 86.016c4.096 8.192 8.192 12.288 16.384 12.288 4.096 0 8.192-4.096 12.288-4.096l57.344-57.344 81.92 139.264H266.24zM286.72 512c40.96 0 73.728-32.768 73.728-73.728 0-40.96-32.768-73.728-73.728-73.728-40.96 0-73.728 32.768-73.728 73.728C208.896 479.232 245.76 512 286.72 512z m0-114.688c20.48 0 36.864 16.384 36.864 36.864 0 20.48-16.384 36.864-36.864 36.864s-36.864-16.384-36.864-36.864c0-16.384 16.384-36.864 36.864-36.864zM851.968 98.304H323.584c-40.96 0-73.728 32.768-73.728 73.728v20.48c0 12.288 8.192 20.48 20.48 20.48s16.384-12.288 16.384-20.48v-20.48c0-20.48 16.384-36.864 36.864-36.864h528.384c20.48 0 36.864 16.384 36.864 36.864v528.384c0 20.48-16.384 36.864-36.864 36.864h-20.48c-12.288 0-20.48 8.192-20.48 20.48s8.192 20.48 20.48 20.48h20.48c40.96 0 73.728-32.768 73.728-73.728v-532.48c0-40.96-32.768-73.728-73.728-73.728zM700.416 249.856H172.032c-40.96 0-73.728 32.768-73.728 73.728v528.384c0 40.96 32.768 73.728 73.728 73.728h528.384c40.96 0 73.728-32.768 73.728-73.728V323.584c0-40.96-32.768-73.728-73.728-73.728z m36.864 602.112c0 20.48-16.384 36.864-36.864 36.864H172.032c-20.48 0-36.864-16.384-36.864-36.864V323.584c0-20.48 16.384-36.864 36.864-36.864h528.384c20.48 0 36.864 16.384 36.864 36.864v528.384z" fill="#000000" p-id="10656"></path></svg>