<?xml version="1.0" standalone="no"?><!DOCTYPE svg PUBLIC "-//W3C//DTD SVG 1.1//EN" "http://www.w3.org/Graphics/SVG/1.1/DTD/svg11.dtd"><svg t="1701854605526" class="icon" viewBox="0 0 1024 1024" version="1.1" xmlns="http://www.w3.org/2000/svg" p-id="8751" xmlns:xlink="http://www.w3.org/1999/xlink" width="128" height="128"><path d="M425.169911 303.470663c0-77.302597-63.257719-140.55213-140.507104-140.55213-77.30362 0-140.55213 63.249533-140.55213 140.55213s63.24851 140.559293 140.55213 140.559293c21.097504 0 38.651298-3.526313 56.205093-14.075577l84.302011 84.324524-84.302011 84.328617c-17.553795-10.549264-35.107589-14.075577-56.205093-14.075577-77.30362 0-140.55213 63.253626-140.55213 140.5552s63.24851 140.55213 140.55213 140.55213c77.248362 0 140.507104-63.249533 140.507104-140.55213 0-21.076014-3.454682-38.627762-14.000875-56.227606l84.302011-84.328617 245.907643 245.955738 140.558269 0-470.767923-470.790436C421.715229 342.099449 425.169911 324.546677 425.169911 303.470663M284.662807 373.727797c-38.651298 0-70.303182-31.628348-70.303182-70.257134 0-38.619576 31.652907-70.247924 70.303182-70.247924s70.248947 31.628348 70.248947 70.247924C354.911754 342.099449 323.314105 373.727797 284.662807 373.727797M284.662807 795.337113c-38.651298 0-70.303182-31.624255-70.303182-70.248947 0-38.627762 31.652907-70.25304 70.303182-70.25304s70.248947 31.625278 70.248947 70.25304C354.911754 763.712859 323.314105 795.337113 284.662807 795.337113M495.471047 496.731248c10.553357 0 17.545608 6.999414 17.545608 17.548678 0 10.552334-6.992251 17.552771-17.545608 17.552771s-17.605983-7.000438-17.605983-17.552771C477.865063 503.730663 484.916667 496.731248 495.471047 496.731248M881.936959 198.071148l-140.558269 0-210.809263 210.809263 70.302159 70.247924L881.936959 198.071148z" p-id="8752"></path></svg>