<?xml version="1.0" standalone="no"?><!DOCTYPE svg PUBLIC "-//W3C//DTD SVG 1.1//EN" "http://www.w3.org/Graphics/SVG/1.1/DTD/svg11.dtd"><svg t="1701854357480" class="icon" viewBox="0 0 1297 1024" version="1.1" xmlns="http://www.w3.org/2000/svg" p-id="7733" xmlns:xlink="http://www.w3.org/1999/xlink" width="162.125" height="128"><path d="M655.63857 577.178338c46.897152 0 85.056553-37.442632 85.056553-83.418224 0-46.009724-38.1594-83.452356-85.056553-83.452356-46.931284 0-85.090684 37.442632-85.090684 83.452356 0 45.975592 38.1594 83.418224 85.090684 83.418224z m230.048622 337.598058v-99.46019l-77.376888-72.632562-104.716494 92.906877a47.204339 47.204339 0 0 1-62.22235-0.682637l-267.422989-230.219281-263.224773 211.276108V914.776396h774.963494zM110.723698 355.014172v336.88129l233.871388-186.940104c18.431195-15.018011 47.545657-14.574297 65.430743 1.092219l263.327168 229.84383 109.938666-92.42903c18.124009-15.18867 38.193532-15.154538 56.283409 0.102395l46.077988 45.975593v-334.492061H110.75783z m899.510588 614.373173c0 30.172549-24.779718 54.610949-55.361849 54.610948H55.361849A54.952267 54.952267 0 0 1 0 969.387345V300.403224c0-30.172549 24.779718-54.610949 55.361849-54.610949h899.510588a54.952267 54.952267 0 0 1 55.361849 54.610949v668.984121z m258.616974-745.780768l-131.612386 625.158835a41.401925 41.401925 0 0 1-49.08159 31.742614 40.958211 40.958211 0 0 1-32.22046-48.398953l123.113557-584.883261L385.450902 89.127116l-19.62581 87.138595a41.504321 41.504321 0 0 1-49.525304 31.059977 40.958211 40.958211 0 0 1-31.537823-48.808535L313.193791 32.126938a41.504321 41.504321 0 0 1 48.774403-31.264768l874.457815 174.243058c10.819794 2.150306 20.308447 8.498829 26.418047 17.5779 6.075468 9.113202 8.225774 20.206051 6.007204 30.889317z" fill="#4A4A4A" p-id="7734"></path></svg>