<?xml version="1.0" standalone="no"?><!DOCTYPE svg PUBLIC "-//W3C//DTD SVG 1.1//EN" "http://www.w3.org/Graphics/SVG/1.1/DTD/svg11.dtd"><svg t="1710143962431" class="icon" viewBox="0 0 1024 1024" version="1.1" xmlns="http://www.w3.org/2000/svg" p-id="23046" xmlns:xlink="http://www.w3.org/1999/xlink" width="200" height="200"><path d="M64.303 735.848h373.08V288.151H64.303v447.697z m49.744-397.953h273.591v348.208H114.047V337.895zM586.615 288.15v447.698h373.08V288.151h-373.08z m323.338 397.954H636.362v-348.21h273.591v348.21zM561.742 114.046c0-27.47-22.247-49.743-49.743-49.743-27.446 0-49.743 22.273-49.743 49.743 0 18.405 10.014 34.462 24.872 43.066v709.775c-14.858 8.604-24.872 24.662-24.872 43.066 0 27.471 22.297 49.743 49.743 49.743 27.496 0 49.743-22.273 49.743-49.743 0-18.413-10-34.478-24.872-43.08V157.126c14.872-8.601 24.872-24.666 24.872-43.08z" p-id="23047"></path></svg>