<?xml version="1.0" standalone="no"?><!DOCTYPE svg PUBLIC "-//W3C//DTD SVG 1.1//EN" "http://www.w3.org/Graphics/SVG/1.1/DTD/svg11.dtd"><svg t="1710145428013" class="icon" viewBox="0 0 1024 1024" version="1.1" xmlns="http://www.w3.org/2000/svg" p-id="51583" xmlns:xlink="http://www.w3.org/1999/xlink" width="200" height="200"><path d="M121.904762 804.571429h780.190476a48.761905 48.761905 0 0 1 48.761905 48.761904v48.761905a48.761905 48.761905 0 0 1-48.761905 48.761905H121.904762a48.761905 48.761905 0 0 1-48.761905-48.761905v-48.761905a48.761905 48.761905 0 0 1 48.761905-48.761904z m0-243.809524h780.190476a48.761905 48.761905 0 0 1 48.761905 48.761905v48.761904a48.761905 48.761905 0 0 1-48.761905 48.761905H121.904762a48.761905 48.761905 0 0 1-48.761905-48.761905v-48.761904a48.761905 48.761905 0 0 1 48.761905-48.761905zM121.904762 73.142857h292.571428a48.761905 48.761905 0 0 1 48.761905 48.761905v292.571428a48.761905 48.761905 0 0 1-48.761905 48.761905H121.904762a48.761905 48.761905 0 0 1-48.761905-48.761905V121.904762a48.761905 48.761905 0 0 1 48.761905-48.761905z m414.47619 195.047619h97.52381v195.047619h-97.52381v-195.047619z m146.285715-97.523809h97.523809v292.571428h-97.523809V170.666667z m146.285714-97.52381h97.523809v390.095238h-97.523809V73.142857z" fill="#000000" p-id="51584"></path></svg>