<?xml version="1.0" standalone="no"?><!DOCTYPE svg PUBLIC "-//W3C//DTD SVG 1.1//EN" "http://www.w3.org/Graphics/SVG/1.1/DTD/svg11.dtd"><svg t="1656382838992" class="icon" viewBox="0 0 1024 1024" version="1.1" xmlns="http://www.w3.org/2000/svg" p-id="1927" xmlns:xlink="http://www.w3.org/1999/xlink" width="64" height="64"><defs><style type="text/css">@font-face { font-family: feedback-iconfont; src: url("//at.alicdn.com/t/font_1031158_u69w8yhxdu.woff2?t=1630033759944") format("woff2"), url("//at.alicdn.com/t/font_1031158_u69w8yhxdu.woff?t=1630033759944") format("woff"), url("//at.alicdn.com/t/font_1031158_u69w8yhxdu.ttf?t=1630033759944") format("truetype"); }
</style></defs><path d="M981.333333 276.053333V981.333333a42.666667 42.666667 0 0 1-42.666666 42.666667H85.333333a42.666667 42.666667 0 0 1-42.666666-42.666667V42.666667a42.666667 42.666667 0 0 1 42.666666-42.666667h619.946667z" fill="#4C98FC" p-id="1928"></path><path d="M705.28 233.386667V0L981.333333 276.053333H747.946667a42.666667 42.666667 0 0 1-42.666667-42.666666z" fill="#A5D1FD" p-id="1929"></path><path d="M167.04 489.386667m26.666667 0l160 0q26.666667 0 26.666666 26.666666l0 0q0 26.666667-26.666666 26.666667l-160 0q-26.666667 0-26.666667-26.666667l0 0q0-26.666667 26.666667-26.666666Z" fill="#FFFFFF" p-id="1930"></path><path d="M300.373333 542.72v229.333333a26.666667 26.666667 0 0 1-26.666666 26.666667 26.666667 26.666667 0 0 1-26.666667-26.666667V542.72h53.333333z" fill="#FFFFFF" p-id="1931"></path><path d="M653.866667 489.386667m26.666666 0l160 0q26.666667 0 26.666667 26.666666l0 0q0 26.666667-26.666667 26.666667l-160 0q-26.666667 0-26.666666-26.666667l0 0q0-26.666667 26.666666-26.666666Z" fill="#FFFFFF" p-id="1932"></path><path d="M787.2 542.72v229.333333a26.666667 26.666667 0 0 1-26.666667 26.666667 26.666667 26.666667 0 0 1-26.666666-26.666667V542.72h53.333333z" fill="#FFFFFF" p-id="1933"></path><path d="M430.43932 531.537782m18.856181 18.856181l173.476863 173.476863q18.856181 18.856181 0 37.712362l0 0q-18.856181 18.856181-37.712361 0l-173.476864-173.476864q-18.856181-18.856181 0-37.712361l0 0q18.856181-18.856181 37.712362 0Z" fill="#FFFFFF" p-id="1934"></path><path d="M392.650461 742.693177m18.856181-18.856181l173.476864-173.476863q18.856181-18.856181 37.712361 0l0 0q18.856181 18.856181 0 37.712361l-173.476863 173.476864q-18.856181 18.856181-37.712362 0l0 0q-18.856181-18.856181 0-37.712362Z" fill="#FFFFFF" p-id="1935"></path></svg>