<?xml version="1.0" standalone="no"?><!DOCTYPE svg PUBLIC "-//W3C//DTD SVG 1.1//EN" "http://www.w3.org/Graphics/SVG/1.1/DTD/svg11.dtd"><svg t="1710145327441" class="icon" viewBox="0 0 1024 1024" version="1.1" xmlns="http://www.w3.org/2000/svg" p-id="47140" xmlns:xlink="http://www.w3.org/1999/xlink" width="200" height="200"><path d="M860.8 711.36H163.2l195.392-352.64 155.264 149.056 144.448-241.152z m-116.416-617.984h186.176v186.24a46.72 46.72 0 0 0 46.72 46.72 46.72 46.72 0 0 0 46.72-46.72v-203.52A76.096 76.096 0 0 0 947.904 0h-203.52a46.72 46.72 0 0 0-46.72 46.72 46.656 46.656 0 0 0 46.72 46.656z m186.176 651.008v186.24h-186.176a46.656 46.656 0 0 0-46.72 46.656 46.72 46.72 0 0 0 46.72 46.72h203.52A76.096 76.096 0 0 0 1024 947.904v-203.52a46.72 46.72 0 0 0-46.72-46.72 46.72 46.72 0 0 0-46.72 46.72zM93.376 279.616v-186.24h186.24a46.656 46.656 0 0 0 46.72-46.656 46.72 46.72 0 0 0-46.72-46.72h-203.52A76.096 76.096 0 0 0 0 76.096v203.52a46.72 46.72 0 0 0 46.72 46.72 46.656 46.656 0 0 0 46.656-46.72z m186.24 651.008h-186.24v-186.24a46.656 46.656 0 0 0-46.656-46.72 46.72 46.72 0 0 0-46.72 46.72v203.52A76.096 76.096 0 0 0 76.096 1024h203.52a46.72 46.72 0 0 0 46.72-46.72 46.656 46.656 0 0 0-46.72-46.656z" fill="#323232" p-id="47141"></path></svg>