<?xml version="1.0" standalone="no"?><!DOCTYPE svg PUBLIC "-//W3C//DTD SVG 1.1//EN" "http://www.w3.org/Graphics/SVG/1.1/DTD/svg11.dtd"><svg t="1656382482285" class="icon" viewBox="0 0 1024 1024" version="1.1" xmlns="http://www.w3.org/2000/svg" p-id="1595" xmlns:xlink="http://www.w3.org/1999/xlink" width="64" height="64"><defs><style type="text/css">@font-face { font-family: feedback-iconfont; src: url("//at.alicdn.com/t/font_1031158_u69w8yhxdu.woff2?t=1630033759944") format("woff2"), url("//at.alicdn.com/t/font_1031158_u69w8yhxdu.woff?t=1630033759944") format("woff"), url("//at.alicdn.com/t/font_1031158_u69w8yhxdu.ttf?t=1630033759944") format("truetype"); }
</style></defs><path d="M102.4 0h785.066667a51.2 51.2 0 0 1 51.2 51.2v904.533333a68.266667 68.266667 0 0 1-68.266667 68.266667H102.4a51.2 51.2 0 0 1-51.2-51.2V51.2a51.2 51.2 0 0 1 51.2-51.2z" fill="#61729B" p-id="1596"></path><path d="M119.466667 73.216m34.133333 0l682.666667 0q34.133333 0 34.133333 34.133333l0 809.472q0 34.133333-34.133333 34.133334l-682.666667 0q-34.133333 0-34.133333-34.133334l0-809.472q0-34.133333 34.133333-34.133333Z" fill="#EDF5FF" p-id="1597"></path><path d="M836.266667 529.066667h136.533333v375.466666h-136.533333z" fill="#FF637B" p-id="1598"></path><path d="M853.333333 460.8h102.4a17.066667 17.066667 0 0 1 17.066667 17.066667v51.2h-136.533333v-51.2a17.066667 17.066667 0 0 1 17.066666-17.066667z" fill="#445572" p-id="1599"></path><path d="M919.893333 1013.930667L972.8 904.533333h-136.533333l52.906666 109.397334a17.066667 17.066667 0 0 0 30.72 0z" fill="#FFBEA9" p-id="1600"></path><path d="M972.8 477.866667v426.666666l-52.906667 109.397334a17.066667 17.066667 0 0 1-15.36 10.069333V460.8h51.2a17.066667 17.066667 0 0 1 17.066667 17.066667z" opacity=".5" p-id="1601"></path><path d="M358.4 487.936m25.6 0l324.266667 0q25.6 0 25.6 25.6l0 0q0 25.6-25.6 25.6l-324.266667 0q-25.6 0-25.6-25.6l0 0q0-25.6 25.6-25.6Z" fill="#6AA9FF" p-id="1602"></path><path d="M256 487.936m25.6 0l0 0q25.6 0 25.6 25.6l0 0q0 25.6-25.6 25.6l0 0q-25.6 0-25.6-25.6l0 0q0-25.6 25.6-25.6Z" fill="#6AA9FF" p-id="1603"></path><path d="M358.4 604.330667m25.6 0l324.266667 0q25.6 0 25.6 25.6l0 0q0 25.6-25.6 25.6l-324.266667 0q-25.6 0-25.6-25.6l0 0q0-25.6 25.6-25.6Z" fill="#6AA9FF" p-id="1604"></path><path d="M256 604.330667m25.6 0l0 0q25.6 0 25.6 25.6l0 0q0 25.6-25.6 25.6l0 0q-25.6 0-25.6-25.6l0 0q0-25.6 25.6-25.6Z" fill="#6AA9FF" p-id="1605"></path><path d="M358.4 723.797333m25.6 0l324.266667 0q25.6 0 25.6 25.6l0 0q0 25.6-25.6 25.6l-324.266667 0q-25.6 0-25.6-25.6l0 0q0-25.6 25.6-25.6Z" fill="#6AA9FF" p-id="1606"></path><path d="M256 723.797333m25.6 0l0 0q25.6 0 25.6 25.6l0 0q0 25.6-25.6 25.6l0 0q-25.6 0-25.6-25.6l0 0q0-25.6 25.6-25.6Z" fill="#6AA9FF" p-id="1607"></path><path d="M256 249.002667m17.066667 0l443.733333 0q17.066667 0 17.066667 17.066666l0 102.4q0 17.066667-17.066667 17.066667l-443.733333 0q-17.066667 0-17.066667-17.066667l0-102.4q0-17.066667 17.066667-17.066666Z" fill="#6AA9FF" p-id="1608"></path><path d="M836.266667 904.533333l52.906666 109.397334a17.066667 17.066667 0 0 0 4.778667 5.802666A67.072 67.072 0 0 1 870.4 1024H494.933333V0h392.533334a51.2 51.2 0 0 1 51.2 51.2v409.6h-85.333334a17.066667 17.066667 0 0 0-17.066666 17.066667z" opacity=".4" p-id="1609"></path></svg>