<?xml version="1.0" standalone="no"?><!DOCTYPE svg PUBLIC "-//W3C//DTD SVG 1.1//EN" "http://www.w3.org/Graphics/SVG/1.1/DTD/svg11.dtd"><svg t="1656636762120" class="icon" viewBox="0 0 1024 1024" version="1.1" xmlns="http://www.w3.org/2000/svg" p-id="5363" xmlns:xlink="http://www.w3.org/1999/xlink" width="32" height="32"><defs><style type="text/css">@font-face { font-family: feedback-iconfont; src: url("//at.alicdn.com/t/font_1031158_u69w8yhxdu.woff2?t=1630033759944") format("woff2"), url("//at.alicdn.com/t/font_1031158_u69w8yhxdu.woff?t=1630033759944") format("woff"), url("//at.alicdn.com/t/font_1031158_u69w8yhxdu.ttf?t=1630033759944") format("truetype"); }
</style></defs><path d="M557.327 512l361.29 361.29c12.517 12.517 12.517 32.81 0 45.327-12.517 12.517-32.81 12.517-45.327 0L512 557.327l-361.29 361.29c-12.517 12.517-32.81 12.517-45.327 0-12.517-12.517-12.517-32.81 0-45.327L466.673 512l-361.29-361.29c-12.517-12.517-12.517-32.81 0-45.327 12.517-12.517 32.81-12.517 45.327 0L512 466.673l361.29-361.29c12.517-12.517 32.81-12.517 45.327 0 12.517 12.517 12.517 32.81 0 45.327L557.327 512z" p-id="5364"></path></svg>