<?xml version="1.0" standalone="no"?><!DOCTYPE svg PUBLIC "-//W3C//DTD SVG 1.1//EN" "http://www.w3.org/Graphics/SVG/1.1/DTD/svg11.dtd"><svg t="1710145274505" class="icon" viewBox="0 0 1160 1024" version="1.1" xmlns="http://www.w3.org/2000/svg" p-id="44886" xmlns:xlink="http://www.w3.org/1999/xlink" width="226.5625" height="200"><path d="M1011.579171 0.136515a53.377416 53.377416 0 0 1 52.558326 53.718704V559.848554a313.233969 313.233969 0 0 0-106.481803-18.497801V108.393014H106.48385v757.658979L600.668626 363.130249a52.694841 52.694841 0 0 1 70.305292-4.573257l4.77803 4.573257 189.073457 192.145048a319.65018 319.65018 0 0 0-191.80376 164.364218 327.158512 327.158512 0 0 0-16.381815 254.668977H52.560374a53.445674 53.445674 0 0 1-52.558326-53.786962V53.650447a53.582189 53.582189 0 0 1 52.558326-53.718705h959.018797zM319.447455 216.581256a108.256499 108.256499 0 1 1-106.481802 108.256499 107.437408 107.437408 0 0 1 106.481802-108.256499zM799.980718 1024a29.419011 29.419011 0 0 1-29.350754-29.760299v-207.298227a29.419011 29.419011 0 0 1 29.350754-29.692041 29.896814 29.896814 0 0 1 29.350753 29.692041v207.298227a29.896814 29.896814 0 0 1-29.350753 29.760299z m107.846953-77.540595a29.419011 29.419011 0 0 1-29.350753-29.692041v-207.298227a29.419011 29.419011 0 0 1 29.350753-29.760298 29.419011 29.419011 0 0 1 29.350753 29.760298v207.298227a29.419011 29.419011 0 0 1-29.350753 29.692041zM1019.770079 1024a29.419011 29.419011 0 0 1-29.350753-29.760299v-207.298227a29.419011 29.419011 0 0 1 29.350753-29.692041 29.282496 29.282496 0 0 1 28.668178 29.692041v207.298227a29.282496 29.282496 0 0 1-28.668178 29.760299z m111.259832-77.540595a29.419011 29.419011 0 0 1-29.350753-29.692041v-207.298227a29.419011 29.419011 0 0 1 29.350753-29.760298 29.419011 29.419011 0 0 1 29.350753 29.760298v207.298227a29.419011 29.419011 0 0 1-29.350753 29.692041z" fill="#000000" p-id="44887"></path></svg>