<?xml version="1.0" standalone="no"?><!DOCTYPE svg PUBLIC "-//W3C//DTD SVG 1.1//EN" "http://www.w3.org/Graphics/SVG/1.1/DTD/svg11.dtd"><svg t="1710143279442" class="icon" viewBox="0 0 1024 1024" version="1.1" xmlns="http://www.w3.org/2000/svg" p-id="2091" xmlns:xlink="http://www.w3.org/1999/xlink" width="200" height="200"><path d="M268.501333 183.168a42.666667 42.666667 0 0 1 60.330667 0l170.666667 170.666667a42.666667 42.666667 0 1 1-60.330667 60.330666L341.333333 316.330667V810.666667a42.666667 42.666667 0 1 1-85.333333 0V316.330667l-97.834667 97.834666a42.666667 42.666667 0 1 1-60.330666-60.330666l170.666666-170.666667zM682.666667 707.669333V213.333333a42.666667 42.666667 0 1 1 85.333333 0v494.336l97.834667-97.834666a42.666667 42.666667 0 1 1 60.330666 60.330666l-170.666666 170.666667a42.666667 42.666667 0 0 1-60.330667 0l-170.666667-170.666667a42.666667 42.666667 0 1 1 60.330667-60.330666L682.666667 707.669333z" fill="#000000" p-id="2092"></path></svg>