<?xml version="1.0" standalone="no"?><!DOCTYPE svg PUBLIC "-//W3C//DTD SVG 1.1//EN" "http://www.w3.org/Graphics/SVG/1.1/DTD/svg11.dtd"><svg t="1701845652350" class="icon" viewBox="0 0 1170 1024" version="1.1" xmlns="http://www.w3.org/2000/svg" p-id="9539" width="146.25" height="128" xmlns:xlink="http://www.w3.org/1999/xlink"><path d="M977.36416016 863.77167969c0 34.39248047-29.05664063 62.22832031-64.8 62.22832031H103.14248047l113.33583984-513.70751953c0-34.39248047 28.92919922-62.29248047 64.60751953-62.29248047h744.81416016c35.74248047 0 64.67167969 27.9 64.67167969 62.29248047L977.36328125 863.77167969zM239.75 297.8h727.39248047v-59.52832031c0-33.49335937-28.99248047-60.68583984-64.60664063-60.68583985H514.57167969V122.62167969C514.57167969 89.19248047 485.64160156 62 449.96416016 62H126.60839844C90.92832031 62 62 89.19335937 62 122.62167969v721.09248047l113.07832031-485.22832032c0-33.49335937 28.92919922-60.68583984 64.67167969-60.68583984z" p-id="9540"></path></svg>