<?xml version="1.0" standalone="no"?><!DOCTYPE svg PUBLIC "-//W3C//DTD SVG 1.1//EN" "http://www.w3.org/Graphics/SVG/1.1/DTD/svg11.dtd"><svg t="1701847835536" class="icon" viewBox="0 0 1024 1024" version="1.1" xmlns="http://www.w3.org/2000/svg" p-id="11658" xmlns:xlink="http://www.w3.org/1999/xlink" width="128" height="128"><path d="M351.68 26.624v105.088a412.608 412.608 0 0 0-253.056 379.776A413.888 413.888 0 0 0 512 924.864c161.792 0 308.8-97.152 375.36-243.2v0.512h105.088c-0.512 4.48-0.512 9.344-2.496 13.824C913.984 892.288 722.112 1024 512 1024c-282.112 0-512-229.888-512-512A512.128 512.128 0 0 1 345.28 27.648c1.92-1.024 4.48-0.512 6.4-1.024zM512 0c282.112 0 512 229.888 512 512 0 27.136-22.208 49.28-49.28 49.28H512A48.832 48.832 0 0 1 462.72 512V49.28C462.72 22.272 484.8 0 512 0z m49.28 101.12v361.6l361.088-0.512A414.72 414.72 0 0 0 561.344 101.12z" fill="#000000" p-id="11659"></path></svg>