<?xml version="1.0" standalone="no"?><!DOCTYPE svg PUBLIC "-//W3C//DTD SVG 1.1//EN" "http://www.w3.org/Graphics/SVG/1.1/DTD/svg11.dtd"><svg t="1710385521469" class="icon" viewBox="0 0 1024 1024" version="1.1" xmlns="http://www.w3.org/2000/svg" p-id="19826" xmlns:xlink="http://www.w3.org/1999/xlink" width="200" height="200"><path d="M201.927828 649.939389a21.602959 21.602959 0 0 1-18.333522-32.978132l192.464967-310.460797a36.704056 36.704056 0 0 1 60.35504-2.923987l0.271425 0.370125L608.608771 539.666833l61.958915-76.2334c0.308437-0.370125 0.629212-0.74025 0.962324-1.098037a36.691719 36.691719 0 0 1 56.271328 3.072037l111.518644 150.048649a21.590621 21.590621 0 1 1-34.544994 25.773034L698.154331 497.941415l-62.008265 76.295087q-0.456487 0.567525-0.962324 1.110375a36.691719 36.691719 0 0 1-56.012241-2.751262l-0.283762-0.382463-171.232134-234.75791-187.357243 302.268699a21.578284 21.578284 0 0 1-18.370534 10.215448z" fill="#231815" p-id="19827"></path><path d="M766.207969 553.361456a21.590621 21.590621 0 0 1-17.025747-34.902782 163.21276 163.21276 0 0 0 34.730057-101.167483c0-90.915022-74.024987-164.890659-164.89066-164.890659a164.088722 164.088722 0 0 0-147.618162 91.297484 21.595556 21.595556 0 0 1-38.641043-19.295846 208.084239 208.084239 0 0 1 186.296218-115.232231c114.73873 0 208.071902 93.345509 208.071902 208.071902a206.134915 206.134915 0 0 1-43.83513 127.779466 21.553609 21.553609 0 0 1-17.087435 8.340149zM792.43749 734.216837H210.218627a21.590621 21.590621 0 1 1 0-43.181242H792.43749a21.590621 21.590621 0 0 1 0 43.181242zM717.906665 814.793036H284.786464a21.590621 21.590621 0 0 1 0-43.181243h433.120201a21.590621 21.590621 0 1 1 0 43.181243zM842.749806 32.361257h148.901262v148.888925h26.254196V31.633345a25.563296 25.563296 0 0 0-25.538621-25.538621H842.749806z" fill="#231815" p-id="19828"></path><path d="M1017.905264 187.344906h-26.254196a6.168749 6.168749 0 0 1-6.168749-6.094724V38.443643H842.749806a6.094724 6.094724 0 0 1-6.094724-6.094724V6.094724A6.094724 6.094724 0 0 1 842.749806 0h149.616837a31.670357 31.670357 0 0 1 31.633345 31.633345v149.616837a6.094724 6.094724 0 0 1-6.094724 6.094724z m-20.159472-12.189448h14.064748V31.633345a19.468572 19.468572 0 0 0-19.443897-19.443897H848.84453v14.064748h142.806538a6.094724 6.094724 0 0 1 6.094724 6.094723zM991.651068 842.749806v148.888925H842.749806v26.266533h149.616837a25.575633 25.575633 0 0 0 25.538621-25.538621V842.749806z" fill="#231815" p-id="19829"></path><path d="M992.366643 1023.999988H842.749806a6.094724 6.094724 0 0 1-6.094724-6.094724v-26.266533a6.094724 6.094724 0 0 1 6.094724-6.094724h142.794201V842.749806a6.168749 6.168749 0 0 1 6.168749-6.094724h26.254195a6.094724 6.094724 0 0 1 6.094724 6.094724v149.616837a31.670357 31.670357 0 0 1-31.695032 31.633345z m-143.522113-12.189448h143.522113a19.468572 19.468572 0 0 0 19.443897-19.443897V848.84453h-14.064748v142.794201a6.094724 6.094724 0 0 1-6.094724 6.094724H848.84453zM32.348919 181.250182V32.361257h148.901263V6.094724H31.633345a25.563296 25.563296 0 0 0-25.538621 25.538621v149.616837z" fill="#231815" p-id="19830"></path><path d="M32.348919 187.344906H6.094724A6.094724 6.094724 0 0 1 0 181.250182V31.633345A31.670357 31.670357 0 0 1 31.633345 0h149.616837a6.094724 6.094724 0 0 1 6.094724 6.094724v26.266533a6.094724 6.094724 0 0 1-6.094724 6.094724H38.443643v142.794201a6.094724 6.094724 0 0 1-6.094724 6.094724z m-20.159471-12.189448H26.278871V32.361257a6.094724 6.094724 0 0 1 6.094723-6.094724h142.781864V12.201785H31.633345A19.468572 19.468572 0 0 0 12.189448 31.645682zM181.250182 991.638731H32.348919V842.749806H6.094724v149.616837a25.563296 25.563296 0 0 0 25.538621 25.538621h149.616837z" fill="#231815" p-id="19831"></path><path d="M181.250182 1023.999988H31.633345A31.670357 31.670357 0 0 1 0 992.366643V842.749806a6.094724 6.094724 0 0 1 6.094724-6.094724h26.254195a6.094724 6.094724 0 0 1 6.094724 6.094724v142.794201h142.806539a6.094724 6.094724 0 0 1 6.094724 6.094724v26.266533a6.094724 6.094724 0 0 1-6.094724 6.094724z m-169.023722-175.19247v143.559125a19.468572 19.468572 0 0 0 19.443897 19.443897h143.485101V997.733455H32.348919a6.094724 6.094724 0 0 1-6.094723-6.094724V848.84453z" fill="#231815" p-id="19832"></path></svg>