<?xml version="1.0" standalone="no"?><!DOCTYPE svg PUBLIC "-//W3C//DTD SVG 1.1//EN" "http://www.w3.org/Graphics/SVG/1.1/DTD/svg11.dtd"><svg t="1710386008006" class="icon" viewBox="0 0 1024 1024" version="1.1" xmlns="http://www.w3.org/2000/svg" p-id="23277" xmlns:xlink="http://www.w3.org/1999/xlink" width="200" height="200"><path d="M898.64 343.8a26.07 26.07 0 0 1-26.07-26.06V152H712.36a26.07 26.07 0 1 1 0-52.13h186.28A26.06 26.06 0 0 1 924.7 126v191.74a26.06 26.06 0 0 1-26.06 26.06zM125.56 338.3a26.06 26.06 0 0 1-26.06-26.06V126a26.06 26.06 0 0 1 26.06-26.1h191.77a26.07 26.07 0 1 1 0 52.13h-165.7v160.21a26.07 26.07 0 0 1-26.07 26.06zM311.84 925.1H125.56A26.06 26.06 0 0 1 99.5 899V707.26a26.07 26.07 0 0 1 52.13 0V873h160.21a26.07 26.07 0 1 1 0 52.13zM898.64 925.1H706.86a26.07 26.07 0 0 1 0-52.13h165.71V712.75a26.07 26.07 0 0 1 52.13 0V899a26.06 26.06 0 0 1-26.06 26.1zM740.64 702.46a26.06 26.06 0 0 1-23.54-14.91l-66.28-139.82-164.13-1.86a26.07 26.07 0 0 1-24.89-19.36L415.54 353l-71.8 206.92a26.06 26.06 0 0 1-24.62 17.52H167.88a26.07 26.07 0 0 1 0-52.13h132.69l93.62-269.8A26.45 26.45 0 0 1 419.77 238 26.08 26.08 0 0 1 444 257.29L507.07 494l160.62 1.83A26.08 26.08 0 0 1 691 510.69l45.79 96.61 31-90.62a26.07 26.07 0 0 1 24.66-17.62h63.9a26.07 26.07 0 0 1 0 52.13h-45.3l-45.74 133.64a26 26 0 0 1-23.19 17.58c-0.49 0.03-0.99 0.05-1.48 0.05z" fill="#000000" p-id="23278" data-spm-anchor-id="a313x.search_index.0.i18.12603a81ZFnS95" class="selected"></path></svg>