<?xml version="1.0" standalone="no"?><!DOCTYPE svg PUBLIC "-//W3C//DTD SVG 1.1//EN" "http://www.w3.org/Graphics/SVG/1.1/DTD/svg11.dtd"><svg t="1710384852865" class="icon" viewBox="0 0 1024 1024" version="1.1" xmlns="http://www.w3.org/2000/svg" p-id="7707" xmlns:xlink="http://www.w3.org/1999/xlink" width="200" height="200"><path d="M206.725 330.26a35.103 35.103 0 0 1 2.622 70.124l-2.622 0.082H90.685v526.623h526.623V796.303c0-18.473 14.336-33.669 32.522-34.98l2.622-0.122c18.473 0 33.669 14.336 34.98 32.48l0.123 2.622v165.888c0 18.514-14.336 33.71-32.482 35.021l-2.621 0.123H55.582a35.103 35.103 0 0 1-35.02-32.481l-0.082-2.622V365.363c0-18.514 14.336-33.669 32.481-35.02l2.622-0.083h151.142zM968.417 14.295c19.374 0 35.103 15.688 35.103 35.103v596.828a35.103 35.103 0 0 1-35.103 35.103h-614.4a35.103 35.103 0 0 1-35.102-35.103V49.398c0-19.415 15.687-35.103 35.102-35.103zM933.315 84.5H389.12v526.623h544.195V84.5z m-272.098 35.103a114.115 114.115 0 0 1 70.984 203.449 192.963 192.963 0 0 1 130.867 182.763 35.103 35.103 0 0 1-70.123 2.621l-0.082-2.621a122.88 122.88 0 0 0-245.76 0 35.103 35.103 0 0 1-70.206 0 193.167 193.167 0 0 1 119.194-178.463 114.115 114.115 0 0 1 65.126-207.749z m0 70.206a43.868 43.868 0 1 0 0 87.777 43.868 43.868 0 0 0 0-87.777z" fill="#666666" p-id="7708"></path><path d="M279.92 703.12a45.056 45.056 0 0 1 44.81 40.14l0.247 4.915v110.592a32.768 32.768 0 0 1-65.25 4.096l-0.286-4.096v-90.153h-90.112a32.768 32.768 0 0 1-32.482-28.63l-0.286-4.097a32.768 32.768 0 0 1 28.672-32.522l4.096-0.246H279.92z" fill="#666666" p-id="7709"></path><path d="M259.85 721.019a32.768 32.768 0 0 1 48.374 43.95l-3.277 3.563-113.05 107.357a32.768 32.768 0 0 1-48.373-43.91l3.277-3.604L259.85 721.06z" fill="#666666" p-id="7710"></path></svg>