<?xml version="1.0" standalone="no"?><!DOCTYPE svg PUBLIC "-//W3C//DTD SVG 1.1//EN" "http://www.w3.org/Graphics/SVG/1.1/DTD/svg11.dtd"><svg t="1662514932770" class="icon" viewBox="0 0 1024 1024" version="1.1" xmlns="http://www.w3.org/2000/svg" p-id="9757" xmlns:xlink="http://www.w3.org/1999/xlink" width="32" height="32"><path d="M44.246914 37.925926C44.246914 18.962963 63.209877 0 82.17284 0h113.777777c18.962963 0 37.925926 18.962963 37.925926 37.925926s-18.962963 37.925926-37.925926 37.925926H120.098765v872.296296h259.160494c25.283951 0 37.925926 18.962963 37.925926 37.925926 0 25.283951-12.641975 37.925926-37.925926 37.925926H82.17284c-18.962963 0-37.925926-12.641975-37.925926-37.925926V37.925926z m682.666666 512c-18.962963 0-44.246914 12.641975-56.888889 25.283951s-25.283951 31.604938-25.28395 56.888888c0 12.641975 6.320988 25.283951 12.641975 37.925926s12.641975 25.283951 25.283951 31.604939 12.641975 18.962963 12.641975 31.604938v145.382716c0 18.962963-12.641975 37.925926-31.604938 37.925926H549.925926v69.530864c0 25.283951-18.962963 37.925926-37.925926 37.925926s-37.925926-12.641975-37.925926-37.925926v-107.45679c0-18.962963 18.962963-37.925926 37.925926-37.925926h113.777778v-94.814815c-18.962963-12.641975-25.283951-25.283951-37.925926-37.925926-12.641975-25.283951-18.962963-50.567901-18.962963-75.851852 0-44.246914 18.962963-82.17284 50.567901-107.45679 25.283951-31.604938 63.209877-50.567901 107.45679-50.567901s82.17284 18.962963 113.777778 50.567901c25.283951 25.283951 44.246914 63.209877 44.246914 107.45679 0 25.283951-6.320988 50.567901-18.962963 75.851852-6.320988 12.641975-18.962963 25.283951-31.604939 37.925926v94.814815h107.45679c25.283951 0 37.925926 18.962963 37.925926 37.925926v107.45679c0 25.283951-12.641975 37.925926-37.925926 37.925926-18.962963 0-37.925926-12.641975-37.925925-37.925926v-69.530864h-107.456791c-18.962963 0-37.925926-18.962963-37.925925-37.925926v-145.382716c0-12.641975 6.320988-25.283951 12.641975-31.604938 12.641975-6.320988 25.283951-18.962963 31.604938-31.604939s6.320988-25.283951 6.320988-37.925926c0-25.283951-6.320988-44.246914-25.283951-56.888888-12.641975-12.641975-31.604938-25.283951-56.888889-25.283951z m-94.814815 474.074074c-18.962963 0-31.604938-12.641975-31.604938-37.925926 0-18.962963 12.641975-37.925926 31.604938-37.925926h189.62963c18.962963 0 37.925926 18.962963 37.925926 37.925926 0 25.283951-18.962963 37.925926-37.925926 37.925926H632.098765zM240.197531 429.82716c-25.283951 0-37.925926-12.641975-37.925926-37.925925 0-18.962963 12.641975-37.925926 37.925926-37.925926h227.555555c18.962963 0 37.925926 18.962963 37.925926 37.925926 0 25.283951-18.962963 37.925926-37.925926 37.925925H240.197531z m0-132.74074c-25.283951 0-37.925926-18.962963-37.925926-37.925926s12.641975-37.925926 37.925926-37.925926h398.222222c25.283951 0 37.925926 18.962963 37.925926 37.925926s-12.641975 37.925926-37.925926 37.925926H240.197531z m69.530864-221.234568c-18.962963 0-37.925926-18.962963-37.925926-37.925926S290.765432 0 309.728395 0h486.716049c18.962963 0 37.925926 18.962963 37.925926 37.925926l-6.320987 353.975309c0 25.283951-12.641975 37.925926-31.604939 37.925925-25.283951 0-37.925926-12.641975-37.925925-37.925925V75.851852H309.728395z" p-id="9758" fill="#8a8a8a"></path></svg>