<svg t="1662455440201" class="icon" viewBox="0 0 1024 1024" version="1.1" xmlns="http://www.w3.org/2000/svg" p-id="3463" width="32" height="32"><path d="M600.6 643.9l252.7 252.7H611.6c-17.7 0-32 14.3-32 32s14.3 32 32 32h351v-349c0-17.7-14.3-32-32-32s-32 14.3-32 32v239.7L645.9 598.6c-12.5-12.5-32.8-12.5-45.3 0s-12.5 32.8 0 45.3zM126.4 412.4V168.6l253.7 253.7c12.5 12.5 32.8 12.5 45.3 0s12.5-32.8 0-45.3L172.6 124.4h240.7c17.7 0 32-14.3 32-32s-14.3-32-32-32h-351v352c0 17.7 14.3 32 32 32s32.1-14.4 32.1-32zM600.6 420c12.5 12.5 32.8 12.5 45.3 0l251.7-251.7V413c0 17.7 14.3 32 32 32s32-14.3 32-32V61h-351c-17.7 0-32 14.3-32 32s14.3 32 32 32h239.7L600.6 374.7c-12.5 12.5-12.5 32.8 0 45.3zM444.4 931.6c0-17.7-14.3-32-32-32H169.6l255.7-255.7c12.5-12.5 12.5-32.8 0-45.3s-32.8-12.5-45.3 0L125.4 853.4V614.6c0-17.7-14.3-32-32-32s-32 14.3-32 32v349h351c17.6 0 32-14.3 32-32z" p-id="3464" fill="#8a8a8a"></path></svg>