<?xml version="1.0" standalone="no"?><!DOCTYPE svg PUBLIC "-//W3C//DTD SVG 1.1//EN" "http://www.w3.org/Graphics/SVG/1.1/DTD/svg11.dtd"><svg t="1710144744516" class="icon" viewBox="0 0 1024 1024" version="1.1" xmlns="http://www.w3.org/2000/svg" p-id="39571" xmlns:xlink="http://www.w3.org/1999/xlink" width="200" height="200"><path d="M317.1 396.1c-51 0-92.5-41.5-92.5-92.5s41.5-92.5 92.5-92.5 92.5 41.5 92.5 92.5-41.5 92.5-92.5 92.5z m0-128c-19.5 0-35.4 15.9-35.4 35.4s15.9 35.4 35.4 35.4 35.4-15.9 35.4-35.4-15.9-35.4-35.4-35.4zM765.2 524.5c-107.2 0-194.4 87.2-194.4 194.3 0 107.2 87.2 194.4 194.4 194.4S959.6 826 959.6 718.9c0-107.2-87.2-194.4-194.4-194.4z m0 331.6c-75.7 0-137.3-61.6-137.3-137.3 0-75.7 61.6-137.3 137.3-137.3 75.7 0 137.3 61.6 137.3 137.3 0 75.8-61.6 137.3-137.3 137.3z" p-id="39572" fill="#000000"></path><path d="M833.4 787.1c-5.6 5.6-12.9 8.4-20.2 8.4-7.3 0-14.6-2.8-20.2-8.4L745 739c-5.4-5.4-8.4-12.6-8.4-20.2V644c0-15.8 12.8-28.5 28.5-28.5 15.8 0 28.5 12.8 28.5 28.5v63l39.7 39.7c11.3 11.2 11.3 29.3 0.1 40.4z" p-id="39573" fill="#000000"></path><path d="M916.8 206.2c0-52.7-42.7-95.4-95.4-95.4H159.8c-52.7 0-95.4 42.7-95.4 95.4v539.4c0 15.5 3.7 30.2 10.3 43.2 15.8 31 47.9 52.2 85.1 52.2h376.5c1 0 1.9 0 2.8-0.1 14.4-1.4 25.7-13.6 25.7-28.4 0-14.8-11.3-27-25.7-28.4-0.9-0.1-1.9-0.1-2.8-0.1-0.7 0-1.3 0-2 0.1h-76c-0.8 0-1.5 0-2.2-0.1-15.9-0.9-24-11.8-26.8-16.7-0.2-0.3-0.4-0.7-0.6-1-1.2-2.3-2.7-5.7-3.5-9.8-1.2-6.2-0.9-14.1 4-22.6l88.9-154 18.1-31.3 25.6-44.3 45.2-78.4c8.7-15.1 23.2-16.7 29-16.7 5.8 0 20.3 1.6 29 16.7l26.6 45.4 2.7 4.7v0.1c5.2 7.1 13.6 11.8 23.1 11.8 15.8 0 28.5-12.8 28.5-28.5 0-6.5-2.2-12.5-5.9-17.3l-25.8-44.6c-17.4-30.2-47.9-45.3-78.4-45.3-30.5 0-61 15.1-78.4 45.3l-88.9 154-80.8 140-1.2-2-23.4-40.5-59-102.2c-11.6-20-31.8-30-52-30s-40.5 10-52 30l-59 102.2-19.8 34.3V206.2c0-21.1 17.2-38.3 38.3-38.3h661.6c21.1 0 38.3 17.2 38.3 38.3v288.1c0 15.8 12.8 28.5 28.5 28.5s28.5-12.8 28.5-28.5V206.2zM430.5 782.8v1.1h-0.1c0.1-0.4 0.1-0.8 0.1-1.1z m-289.4-19.7l49.6-85.9 59-102.2c0.4-0.7 0.9-1.5 2.6-1.5 1.7 0 2.2 0.8 2.6 1.5l59 102.2 57.7 99.9 1.3 2.3c0.3 0.6 0.7 1.3 0.3 2.4 0.3 0.7 0.5 1.4 0.8 2.1H159.8c-3.9 0-7.7-0.6-11.3-1.7-8-2.5-11.6-11.9-7.4-19.1z" p-id="39574" fill="#000000"></path></svg>