<?xml version="1.0" standalone="no"?><!DOCTYPE svg PUBLIC "-//W3C//DTD SVG 1.1//EN" "http://www.w3.org/Graphics/SVG/1.1/DTD/svg11.dtd"><svg t="1662514209243" class="icon" viewBox="0 0 1024 1024" version="1.1" xmlns="http://www.w3.org/2000/svg" p-id="5976" xmlns:xlink="http://www.w3.org/1999/xlink" width="32" height="32"><path d="M960 1024H64a64 64 0 0 1-64-64V64a64 64 0 0 1 64-64h896a64 64 0 0 1 64 64v896a64 64 0 0 1-64 64z m0-896a64 64 0 0 0-64-64H128a64 64 0 0 0-64 64v768a64 64 0 0 0 64 64h768a64 64 0 0 0 64-64V128zM512 768a64 64 0 1 1 64-64 64 64 0 0 1-64 64z m0-192a64 64 0 0 1-64-64V320a64 64 0 0 1 128 0v192a64 64 0 0 1-64 64z" p-id="5977" fill="#8a8a8a"></path></svg>