<?xml version="1.0" standalone="no"?><!DOCTYPE svg PUBLIC "-//W3C//DTD SVG 1.1//EN" "http://www.w3.org/Graphics/SVG/1.1/DTD/svg11.dtd"><svg t="1710144376064" class="icon" viewBox="0 0 1024 1024" version="1.1" xmlns="http://www.w3.org/2000/svg" p-id="23190" xmlns:xlink="http://www.w3.org/1999/xlink" width="200" height="200"><path d="M875.562667 907.605333c-6.570667 28.8-20.394667 30.549333-49.408 31.061334H189.354667a33.28 33.28 0 0 1-38.101334-20.821334L85.333333 597.333333c-1.024-15.658667 2.218667-42.666667 36.010667-42.666666H256l15.146667-77.781334a36.821333 36.821333 0 0 1 38.4-32.298666h278.656A276.821333 276.821333 0 0 0 597.333333 408.746667a34.517333 34.517333 0 0 1 35.157334-24.746667c76.501333 0.384 280.021333 0 280.021333 0A36.138667 36.138667 0 0 1 938.666667 426.666667l-63.104 480.938666zM853.333333 512H341.333333c0.341333 13.738667 0 3.029333 0 42.666667h412.8c8.533333 45.909333 7.082667 21.333333 56.533334 298.666666 1.066667-3.029333 44.202667-331.392 42.666666-341.333333zM361.472 304.341333A309.461333 309.461333 0 0 0 222.250667 374.186667c-69.717333 73.429333-74.496 78.421333-75.946667 137.770666-59.733333-155.392-34.133333-202.325333 44.288-257.066666 19.2-13.312 62.250667-41.088 80.554667-53.845334l-86.784-72.533333L461.397333 85.333333l-46.933333 300.458667z" fill="#000000" p-id="23191"></path></svg>