<?xml version="1.0" standalone="no"?><!DOCTYPE svg PUBLIC "-//W3C//DTD SVG 1.1//EN" "http://www.w3.org/Graphics/SVG/1.1/DTD/svg11.dtd"><svg t="1710145556890" class="icon" viewBox="0 0 1024 1024" version="1.1" xmlns="http://www.w3.org/2000/svg" p-id="57036" xmlns:xlink="http://www.w3.org/1999/xlink" width="200" height="200"><path d="M928 64c19.2 0 32 12.8 32 32v832c0 19.2-12.8 32-32 32H96c-19.2 0-32-12.8-32-32V96c0-19.2 12.8-32 32-32h832z m-32 64H128v768h768V128z" p-id="57037" fill="#1976d2"></path><path d="M732.8 537.6v246.4h60.8V832h-182.4v-48H672v-185.6l-64 12.8v-51.2l124.8-22.4z m32-323.2c3.2-3.2 6.4-3.2 9.6 0l35.2 35.2c3.2 3.2 3.2 6.4 0 9.6L259.2 809.6c-3.2 3.2-6.4 3.2-9.6 0l-35.2-35.2c-3.2-3.2-3.2-6.4 0-9.6L764.8 214.4z m-451.2 3.2c67.2 0 99.2 48 99.2 147.2 0 48-9.6 86.4-25.6 112s-44.8 38.4-80 38.4c-67.2 0-102.4-48-102.4-144 3.2-51.2 9.6-89.6 28.8-115.2s44.8-38.4 80-38.4z m0 44.8c-28.8 0-44.8 35.2-44.8 105.6 0 67.2 12.8 99.2 41.6 99.2s41.6-35.2 41.6-102.4-12.8-102.4-38.4-102.4z" p-id="57038" fill="#1976d2"></path></svg>