<?xml version="1.0" standalone="no"?><!DOCTYPE svg PUBLIC "-//W3C//DTD SVG 1.1//EN" "http://www.w3.org/Graphics/SVG/1.1/DTD/svg11.dtd"><svg t="1710145569755" class="icon" viewBox="0 0 1024 1024" version="1.1" xmlns="http://www.w3.org/2000/svg" p-id="57283" xmlns:xlink="http://www.w3.org/1999/xlink" width="200" height="200"><path d="M128 804.9h56.6l632-642h117.7v0.1H960v698c0 4.4-3.6 8-8 8h-48c-4.4 0-8-3.6-8-8V226.9h-52.6l-632 642H128v0.1H64V171c0-4.4 3.6-8 8-8h48c4.4 0 8 3.6 8 8v633.9z" p-id="57284" fill="#1976d2"></path><path d="M323 184.7c36.5 0 65.1 15 85.8 45.8 19.4 29 29 68.2 29 117.5s-9.7 88.4-29 117.5c-20.7 30.4-49.3 45.8-85.8 45.8-37 0-65.6-15.4-85.8-45.8-19.4-29-29-68.2-29-117.5s9.7-88.4 29-117.5c20.2-30.9 48.8-45.8 85.8-45.8z m0 43.5c-25.1 0-42.7 13.6-52.8 41.8-7 18.9-10.6 44.9-10.6 77.9 0 32.6 3.5 58.5 10.6 77.9 10.1 27.7 27.7 41.8 52.8 41.8 24.6 0 42.2-14.1 52.8-41.8 7-19.4 10.6-45.3 10.6-77.9 0-33-3.5-59-10.6-77.9-10.6-28.1-28.2-41.8-52.8-41.8zM701.1 524.8h38.7V839h-51.5V586.9c-18.9 17.2-42.7 29.9-71.7 38.3v-51c14.1-3.5 29-9.7 44.9-18.5 15.8-9.7 29-19.9 39.6-30.9z" p-id="57285" fill="#1976d2"></path></svg>