<?xml version="1.0" standalone="no"?><!DOCTYPE svg PUBLIC "-//W3C//DTD SVG 1.1//EN" "http://www.w3.org/Graphics/SVG/1.1/DTD/svg11.dtd"><svg t="1710145406184" class="icon" viewBox="0 0 1170 1024" version="1.1" xmlns="http://www.w3.org/2000/svg" p-id="51086" xmlns:xlink="http://www.w3.org/1999/xlink" width="228.515625" height="200"><path d="M341.364 804.571c61.733 0 113.737-48.786 113.737-110.518 0-26.04-9.728-52.005-25.965-71.534l204.8-276.334c12.946 6.583 29.257 9.801 45.495 9.801 25.965 0 52.004-9.8 71.533-26.039l162.524 123.539a103.863 103.863 0 0 0-9.728 45.495c0 61.805 51.931 110.518 113.737 110.518s113.81-48.713 113.81-110.445c0-61.806-52.004-110.592-113.81-110.592-25.966 0-52.005 9.728-71.534 26.039L783.44 290.889c6.51-12.946 9.728-29.257 9.728-45.422 0-61.805-51.932-110.592-113.737-110.592s-110.52 48.787-110.52 110.592c0 25.966 9.729 51.932 25.966 71.461L386.932 590.043a103.863 103.863 0 0 0-45.495-9.8c-61.805 0-113.81 48.786-113.81 110.518 0 61.806 52.005 113.81 113.81 113.81z m676.133-364.105a61.733 61.733 0 1 1-61.733 61.806c0-35.84 25.966-61.806 61.733-61.806zM679.504 183.735a61.733 61.733 0 1 1-61.806 61.732c0-32.548 29.257-61.805 61.806-61.805z m-338.14 448.439a61.733 61.733 0 1 1 0 123.465 61.733 61.733 0 0 1 0-123.465z m802.89 315.392H152.874s-9.728 0-16.238-6.583c-6.582-6.437-6.582-19.456-6.582-25.966V47.104a25.6 25.6 0 0 0-25.966-25.893H26.045A25.6 25.6 0 0 0 0.007 47.104c0 13.02 13.019 26.039 26.038 26.039h51.932v110.519H26.045C13.026 180.443 0.007 193.39 0.007 206.409s13.019 26.039 26.038 26.039h51.932v110.446H26.045A25.6 25.6 0 0 0 0.007 369.006c0 13.02 13.019 26.039 26.038 26.039h51.932v110.518H26.045A25.6 25.6 0 0 0 0.007 531.53c0 12.946 13.019 25.966 26.038 25.966h51.932v110.519H26.045A25.6 25.6 0 0 0 0.007 694.126a25.6 25.6 0 0 0 26.038 25.965h51.932v110.592H26.045a25.6 25.6 0 0 0-26.038 25.82c0 13.02 13.019 26.039 26.038 26.039h51.932v38.985c0 29.257 9.801 48.786 26.039 65.024 16.237 16.238 39.058 16.238 48.786 16.238h991.451a25.6 25.6 0 0 0 26.04-25.966c0-16.311-13.02-29.257-26.04-29.257z" p-id="51087" fill="#1976d2"></path></svg>