<?xml version="1.0" standalone="no"?><!DOCTYPE svg PUBLIC "-//W3C//DTD SVG 1.1//EN" "http://www.w3.org/Graphics/SVG/1.1/DTD/svg11.dtd"><svg t="1710145646356" class="icon" viewBox="0 0 1024 1024" version="1.1" xmlns="http://www.w3.org/2000/svg" p-id="61846" xmlns:xlink="http://www.w3.org/1999/xlink" width="200" height="200"><path d="M922.86 100.81v88.66h-88.67v-88.66z m-183.24 0v88.66H651v-88.66z m-183.24 0v88.66h-88.66v-88.66z m-189.15 0v88.66h-88.66v-88.66z m-183.24 0v88.66H95.33v-88.66zM922.86 284v88.67h-88.67V284zM184 284v88.67H95.33V284z m738.86 183.28V556h-88.67v-88.72z m-738.87 0V556H95.33v-88.72z m195.06-88.66l283.73 76.84L580 538.21 662.78 621l-41.38 47.25-82.75-82.75L450 668.25z m543.81 277.81v88.66h-88.67v-88.66z m-738.87 0v88.66H95.33v-88.66z m183.24 183.24v88.66h-88.66v-88.66z m189.15 0v88.66h-88.66v-88.66z m183.24 0v88.66H651v-88.66z m183.24 0v88.66h-88.67v-88.66z m-738.87 0v88.66H95.33v-88.66z" p-id="61847" fill="#1976d2"></path></svg>