<?xml version="1.0" standalone="no"?><!DOCTYPE svg PUBLIC "-//W3C//DTD SVG 1.1//EN" "http://www.w3.org/Graphics/SVG/1.1/DTD/svg11.dtd"><svg t="1710145621905" class="icon" viewBox="0 0 1024 1024" version="1.1" xmlns="http://www.w3.org/2000/svg" p-id="60611" xmlns:xlink="http://www.w3.org/1999/xlink" width="200" height="200"><path d="M888.470588 39.152941h-783.058823c-51.2 0-90.352941 39.152941-90.352941 90.352941v764.988236c0 51.2 39.152941 90.352941 90.352941 90.352941h783.058823c51.2 0 90.352941-39.152941 90.352941-90.352941V129.505882c0-48.188235-39.152941-90.352941-90.352941-90.352941z m-177.694117 424.658824c-45.176471-3.011765-93.364706-6.023529-138.541177-6.02353 0-45.176471-3.011765-90.352941-6.023529-135.529411 51.2 0 99.388235-3.011765 150.588235-3.011765-6.023529 48.188235-6.023529 96.376471-6.023529 144.564706z m33.129411-147.576471c57.223529-3.011765 117.458824-6.023529 174.682353-12.047059v180.705883c-57.223529-9.035294-117.458824-15.058824-177.694117-21.082353 0-48.188235 0-96.376471 3.011764-147.576471z m-183.717647-24.094118c-6.023529-63.247059-12.047059-126.494118-24.094117-192.752941h189.741176c-6.023529 63.247059-9.035294 126.494118-12.047059 189.741177-51.2 0-102.4 3.011765-153.6 3.011764z m-30.117647 0c-84.329412 0-165.647059 0-249.97647-3.011764 6.023529-60.235294 12.047059-123.482353 21.082353-189.741177h204.8c12.047059 66.258824 18.070588 129.505882 24.094117 192.752941z m-30.117647 30.117648h33.129412c3.011765 45.176471 6.023529 90.352941 6.023529 135.529411-90.352941 0-180.705882 3.011765-271.058823 9.035294 3.011765-48.188235 6.023529-96.376471 9.035294-147.57647 75.294118 3.011765 147.576471 3.011765 222.870588 3.011765z m-262.023529 147.57647l-162.635294 18.070588v-180.705882c57.223529 3.011765 114.447059 9.035294 171.670588 9.035294-3.011765 54.211765-6.023529 102.4-9.035294 153.6z m-162.635294 48.188235c54.211765-9.035294 108.423529-15.058824 162.635294-18.070588-3.011765 87.341176 0 165.647059 3.011764 240.941177-54.211765-6.023529-108.423529-12.047059-165.647058-18.070589v-204.8z m192.752941-21.082353c93.364706-6.023529 183.717647-12.047059 274.070588-9.035294 3.011765 90.352941 0 180.705882-6.023529 268.047059-81.317647 0-168.658824-6.023529-262.02353-12.047059-9.035294-78.305882-9.035294-159.623529-6.023529-246.964706z m262.023529 289.129412c-3.011765 48.188235-9.035294 93.364706-18.070588 138.541177H295.152941c-9.035294-48.188235-15.058824-99.388235-21.082353-150.588236 90.352941 6.023529 174.682353 12.047059 256 12.047059z m30.117647 0c54.211765 0 105.411765-3.011765 153.6-6.023529l9.035294 144.564706h-180.705882c9.035294-45.176471 15.058824-90.352941 18.070588-138.541177z m3.011765-30.117647c6.023529-87.341176 9.035294-177.694118 6.023529-268.047059 45.176471 0 93.364706 3.011765 138.541177 6.02353 0 87.341176 0 171.670588 3.011765 256-45.176471 3.011765-96.376471 6.023529-147.576471 6.023529z m177.694118-259.011765c60.235294 6.023529 120.470588 12.047059 177.694117 21.082353v207.811765c-54.211765 12.047059-111.435294 18.070588-174.682353 24.094118-3.011765-84.329412-6.023529-168.658824-3.011764-252.988236z m177.694117-367.435294v147.576471c-57.223529 3.011765-114.447059 9.035294-174.682353 12.047059 3.011765-63.247059 6.023529-123.482353 12.047059-186.729412h132.517647c18.070588-3.011765 30.117647 12.047059 30.117647 27.105882z m-813.17647-30.117647H271.058824c-6.023529 63.247059-15.058824 126.494118-21.082353 186.729412-57.223529-3.011765-117.458824-6.023529-174.682353-9.035294V129.505882c0-15.058824 12.047059-30.117647 30.117647-30.117647z m-30.117647 795.105883V752.941176c57.223529 6.023529 114.447059 12.047059 168.658823 18.070589 6.023529 54.211765 12.047059 105.411765 21.082353 153.6H105.411765c-18.070588 0-30.117647-12.047059-30.117647-30.117647z m813.17647 30.117647H752.941176c-3.011765-48.188235-6.023529-96.376471-9.035294-147.576471 60.235294-6.023529 120.470588-12.047059 174.682353-24.094118v138.541177c0 21.082353-12.047059 33.129412-30.117647 33.129412z" fill="#000000" p-id="60612"></path></svg>