<?xml version="1.0" standalone="no"?><!DOCTYPE svg PUBLIC "-//W3C//DTD SVG 1.1//EN" "http://www.w3.org/Graphics/SVG/1.1/DTD/svg11.dtd"><svg t="1710144556352" class="icon" viewBox="0 0 1024 1024" version="1.1" xmlns="http://www.w3.org/2000/svg" p-id="29580" xmlns:xlink="http://www.w3.org/1999/xlink" width="200" height="200"><path d="M859.7504 813.6704H150.50752V251.2896H859.7504v562.3808z m-668.28288-40.96H818.7904V292.2496H191.46752v480.4608z" fill="#1976d2" p-id="29581"></path><path d="M268.47232 712.27392l-30.18752-27.66848 227.34848-247.82848 141.04576 251.65824-35.71712 20.02944-113.39776-202.32192z" fill="#1976d2" p-id="29582"></path><path d="M710.12352 708.46464l-64.08192-114.29888-64.45056 70.26688-30.18752-27.66848 102.7072-111.98464 91.72992 163.65568zM659.49696 470.91712c-38.46144 0-69.75488-31.29344-69.75488-69.75488s31.29344-69.75488 69.75488-69.75488 69.75488 31.29344 69.75488 69.75488-31.29344 69.75488-69.75488 69.75488z m0-98.57024c-15.872 0-28.79488 12.92288-28.79488 28.79488s12.92288 28.79488 28.79488 28.79488 28.79488-12.92288 28.79488-28.79488-12.9024-28.79488-28.79488-28.79488z" fill="#1976d2" p-id="29583"></path></svg>