<?xml version="1.0" standalone="no"?><!DOCTYPE svg PUBLIC "-//W3C//DTD SVG 1.1//EN" "http://www.w3.org/Graphics/SVG/1.1/DTD/svg11.dtd"><svg t="1710145417211" class="icon" viewBox="0 0 1024 1024" version="1.1" xmlns="http://www.w3.org/2000/svg" p-id="51332" xmlns:xlink="http://www.w3.org/1999/xlink" width="200" height="200"><path d="M0 0m28.564211 0l427.92421 0q28.564211 0 28.564211 28.564211l0 427.92421q0 28.564211-28.564211 28.564211l-427.92421 0q-28.564211 0-28.564211-28.564211l0-427.92421q0-28.564211 28.564211-28.564211Z" fill="#1976d2" p-id="51333"></path><path d="M0 538.947368m28.564211 0l427.92421 0q28.564211 0 28.564211 28.564211l0 427.92421q0 28.564211-28.564211 28.564211l-427.92421 0q-28.564211 0-28.564211-28.564211l0-427.92421q0-28.564211 28.564211-28.564211Z" fill="#1976d2" p-id="51334"></path><path d="M538.947368 50.661053m27.75579 0l429.541053 0q27.755789 0 27.755789 27.755789l0 25.330526q0 27.755789-27.755789 27.75579l-429.541053 0q-27.755789 0-27.75579-27.75579l0-25.330526q0-27.755789 27.75579-27.755789Z" fill="#1976d2" p-id="51335"></path><path d="M538.947368 592.842105m27.75579 0l429.541053 0q27.755789 0 27.755789 27.75579l0 25.330526q0 27.755789-27.755789 27.75579l-429.541053 0q-27.755789 0-27.75579-27.75579l0-25.330526q0-27.755789 27.75579-27.75579Z" fill="#1976d2" p-id="51336"></path><path d="M538.947368 869.052632m27.75579 0l429.541053 0q27.755789 0 27.755789 27.755789l0 25.330526q0 27.755789-27.755789 27.75579l-429.541053 0q-27.755789 0-27.75579-27.75579l0-25.330526q0-27.755789 27.75579-27.755789Z" fill="#1976d2" p-id="51337"></path><path d="M538.947368 355.435789m27.75579 0l429.541053 0q27.755789 0 27.755789 27.75579l0 25.330526q0 27.755789-27.755789 27.75579l-429.541053 0q-27.755789 0-27.75579-27.75579l0-25.330526q0-27.755789 27.75579-27.75579Z" fill="#1976d2" p-id="51338"></path></svg>