<?xml version="1.0" standalone="no"?><!DOCTYPE svg PUBLIC "-//W3C//DTD SVG 1.1//EN" "http://www.w3.org/Graphics/SVG/1.1/DTD/svg11.dtd"><svg t="1710145681746" class="icon" viewBox="0 0 1024 1024" version="1.1" xmlns="http://www.w3.org/2000/svg" p-id="63920" xmlns:xlink="http://www.w3.org/1999/xlink" width="200" height="200"><path d="M879.771131 525.46671c-10.698666 0-19.371186 8.673543-19.371186 19.371186l0 344.743672c0 13.726629-11.167341 24.89397-24.89397 24.89397L198.998263 914.475538c-13.728676 0-24.898063-11.167341-24.898063-24.89397L174.1002 544.837896c0-10.697643-8.67252-19.371186-19.371186-19.371186s-19.371186 8.673543-19.371186 19.371186l0 344.743672c0 35.08917 28.548196 63.636343 63.639412 63.636343l636.508735 0c35.08917 0 63.636343-28.54615 63.636343-63.636343L899.142318 544.837896C899.142318 534.140253 890.469797 525.46671 879.771131 525.46671z" fill="#1976d2" p-id="63921"></path><path d="M219.763193 669.385517c1.137916-0.385786 115.822912-38.2123 290.452161-8.797363 82.594113 13.911848 135.614677 18.844184 177.236634 18.844184 40.548508 0 70.279646-4.682649 105.986893-10.30674 9.612938-1.51347 19.553335-3.080152 30.3134-4.64888 10.587126-1.544169 17.917068-11.377118 16.372899-21.963221-1.543146-10.586103-11.370978-17.916045-21.963221-16.372899-10.979052 1.600451-21.030989 3.183506-30.751375 4.714372-71.047126 11.1919-113.929796 17.943674-270.761704-8.470929-184.152137-31.016411-304.291354 8.606005-309.315788 10.307763-10.132778 3.432169-15.564487 14.429641-12.132318 24.561395C198.633966 667.384953 209.628368 672.821779 219.763193 669.385517z" fill="#1976d2" p-id="63922"></path><path d="M818.161958 767.423367c-10.979052 1.600451-21.032012 3.183506-30.753421 4.715395-71.045079 11.18883-113.924679 17.944697-270.759657-8.466835-184.152137-31.016411-304.292378 8.601912-309.315788 10.301623-10.132778 3.432169-15.564487 14.429641-12.132318 24.561395 3.432169 10.132778 14.429641 15.564487 24.561395 12.133342 1.137916-0.385786 115.823935-38.207184 290.453185-8.79327 82.59309 13.908778 135.606491 18.841114 177.227424 18.84009 40.548508-0.001023 70.28681-4.682649 105.994056-10.30674 9.613962-1.514493 19.554358-3.080152 30.315446-4.649903 10.587126-1.544169 17.917068-11.377118 16.372899-21.963221C838.582033 773.211187 828.754201 765.880221 818.161958 767.423367z" fill="#1976d2" p-id="63923"></path><path d="M328.234673 262.237563c4.909823 0 9.822716-1.855254 13.596669-5.573949L490.496244 110.141516l0 414.804331c0 10.698666 8.67252 19.371186 19.371186 19.371186 10.698666 0 19.371186-8.67252 19.371186-19.371186L529.238616 108.23919 677.903517 254.735705c3.773953 3.718695 8.6848 5.572926 13.595646 5.572926 5.004991 0 10.007935-1.927909 13.798261-5.774517 7.509021-7.620561 7.41897-19.884886-0.200568-27.393907L524.873192 49.54644c-3.886517-3.830235-8.981559-5.671163-14.037714-5.556553-5.061272-0.118704-10.161431 1.723248-14.052041 5.557576L314.635957 229.069139c-7.619538 7.510044-7.708566 19.774369-0.198521 27.39493C318.227762 260.309654 323.230706 262.237563 328.234673 262.237563z" fill="#1976d2" p-id="63924"></path></svg>