<?xml version="1.0" standalone="no"?><!DOCTYPE svg PUBLIC "-//W3C//DTD SVG 1.1//EN" "http://www.w3.org/Graphics/SVG/1.1/DTD/svg11.dtd"><svg t="1710145695887" class="icon" viewBox="0 0 1024 1024" version="1.1" xmlns="http://www.w3.org/2000/svg" p-id="64173" xmlns:xlink="http://www.w3.org/1999/xlink" width="200" height="200"><path d="M672 512h-320c-17.066667 0-32 14.933333-32 32s14.933333 32 32 32h320c17.066667 0 32-14.933333 32-32s-14.933333-32-32-32zM704 672c0-17.066667-14.933333-32-32-32h-320c-17.066667 0-32 14.933333-32 32s14.933333 32 32 32h320c17.066667 0 32-14.933333 32-32zM352 768c-17.066667 0-32 14.933333-32 32s14.933333 32 32 32h234.666667c17.066667 0 32-14.933333 32-32s-14.933333-32-32-32h-234.666667z" p-id="64174" fill="#1976d2"></path><path d="M832 298.666667H586.666667c-17.066667 0-32 14.933333-32 32s14.933333 32 32 32H810.666667v554.666666H213.333333V362.666667h74.666667c17.066667 0 32-14.933333 32-32s-14.933333-32-32-32H192c-23.466667 0-42.666667 19.2-42.666667 42.666666v597.333334c0 23.466667 19.2 42.666667 42.666667 42.666666h640c23.466667 0 42.666667-19.2 42.666667-42.666666V341.333333c0-23.466667-19.2-42.666667-42.666667-42.666666z" p-id="64175" fill="#1976d2"></path><path d="M354.133333 202.666667L405.333333 151.466667v243.2c0 17.066667 14.933333 32 32 32s32-14.933333 32-32V151.466667l51.2 51.2c12.8 12.8 32 12.8 44.8 0 12.8-12.8 12.8-32 0-44.8l-104.533333-104.533334c-2.133333-2.133333-6.4-4.266667-10.666667-6.4-4.266667-4.266667-8.533333-4.266667-12.8-4.266666s-8.533333 0-10.666666 2.133333c-4.266667 2.133333-8.533333 4.266667-10.666667 6.4l-104.533333 104.533333c-12.8 12.8-12.8 32 0 44.8 10.666667 14.933333 29.866667 14.933333 42.666666 2.133334z" p-id="64176" fill="#1976d2"></path></svg>