<?xml version="1.0" standalone="no"?><!DOCTYPE svg PUBLIC "-//W3C//DTD SVG 1.1//EN" "http://www.w3.org/Graphics/SVG/1.1/DTD/svg11.dtd"><svg t="1710144429971" class="icon" viewBox="0 0 1024 1024" version="1.1" xmlns="http://www.w3.org/2000/svg" p-id="24897" xmlns:xlink="http://www.w3.org/1999/xlink" width="200" height="200"><path d="M102.4 261.688889h705.422222a34.133333 34.133333 0 0 1 34.133334 34.133333v489.244445a34.133333 34.133333 0 0 1-34.133334 34.133333H102.4a34.133333 34.133333 0 0 1-34.133333-34.133333V295.822222a34.133333 34.133333 0 0 1 34.133333-34.133333z m585.955556 182.044444a51.2 51.2 0 1 0 0-102.4 51.2 51.2 0 0 0 0 102.4z m-324.699023 11.377778l-231.310222 254.953245h636.416l-148.366222-166.274845L534.755556 619.406222 363.656533 455.111111z" fill="#000000" p-id="24898"></path><path d="M694.533689 250.959644H193.422222l9.181867-52.076088a34.133333 34.133333 0 0 1 39.537778-27.693512l452.391822 79.7696z m164.7616 29.047467l77.562311 13.676089a34.133333 34.133333 0 0 1 27.682133 39.549156l-84.957866 481.803377a34.133333 34.133333 0 0 1-39.537778 27.693511l-65.2288-11.502933h50.722133a34.133333 34.133333 0 0 0 34.133334-34.133333v-512c0-1.729422-0.125156-3.413333-0.375467-5.085867z" fill="#000000" p-id="24899"></path></svg>