<?xml version="1.0" standalone="no"?><!DOCTYPE svg PUBLIC "-//W3C//DTD SVG 1.1//EN" "http://www.w3.org/Graphics/SVG/1.1/DTD/svg11.dtd"><svg t="1710143888348" class="icon" viewBox="0 0 1024 1024" version="1.1" xmlns="http://www.w3.org/2000/svg" p-id="18022" xmlns:xlink="http://www.w3.org/1999/xlink" width="200" height="200"><path d="M668.032 491.008a179.968 179.968 0 0 1 156.48 268.928l80.32 80.32a16 16 0 0 1 0 22.656l-45.248 45.248a16 16 0 0 1-22.656 0l-80.384-80.384a179.968 179.968 0 1 1-88.512-336.768z m74.944-376a64 64 0 0 1 64 64v200a16 16 0 0 1-16 16h-64a16 16 0 0 1-16-16V211.328l-502.528 0.128v558.976h9.792a16.128 16.128 0 0 1 2.496-0.256H375.68a16 16 0 0 1 16 16v64a16 16 0 0 1-16 16h-29.184l0.064 0.128h-169.6a64 64 0 0 1-64-64v-623.36a64 64 0 0 1 64-64h566.016z m-74.944 472.96a83.008 83.008 0 1 0 0 166.016 83.008 83.008 0 0 0 0-166.016zM598.912 308.096a16 16 0 0 1 16 16v64a16 16 0 0 1-16 16H321.024a16 16 0 0 1-16-16v-64a16 16 0 0 1 16-16h277.952z" fill="#000000" p-id="18023"></path></svg>