<?xml version="1.0" standalone="no"?><!DOCTYPE svg PUBLIC "-//W3C//DTD SVG 1.1//EN" "http://www.w3.org/Graphics/SVG/1.1/DTD/svg11.dtd"><svg t="1710145710362" class="icon" viewBox="0 0 1024 1024" version="1.1" xmlns="http://www.w3.org/2000/svg" p-id="65248" xmlns:xlink="http://www.w3.org/1999/xlink" width="200" height="200"><path d="M873.4 289.25H733.2V156.42a30.63 30.63 0 0 0-30.6-30.6H167.69a30.63 30.63 0 0 0-30.6 30.6v534.91a30.63 30.63 0 0 0 30.6 30.6H307.9v132.83a30.63 30.63 0 0 0 30.6 30.6h534.9a30.63 30.63 0 0 0 30.6-30.6V319.85a30.63 30.63 0 0 0-30.6-30.6zM194.69 664.33V183.42h480.92v105.83H338.5a30.63 30.63 0 0 0-30.6 30.6v344.48z m480.92-317.48v317.48H365.5V346.85z m170.8 480.91H365.5V721.93h337.1a30.63 30.63 0 0 0 30.6-30.6V346.85h113.21z" p-id="65249" fill="#000000"></path></svg>