<?xml version="1.0" standalone="no"?><!DOCTYPE svg PUBLIC "-//W3C//DTD SVG 1.1//EN" "http://www.w3.org/Graphics/SVG/1.1/DTD/svg11.dtd"><svg t="1710145348991" class="icon" viewBox="0 0 1024 1024" version="1.1" xmlns="http://www.w3.org/2000/svg" p-id="49963" xmlns:xlink="http://www.w3.org/1999/xlink" width="200" height="200"><path d="M134.4 192.83456H65.60256V958.464h756.608v-63.81056H134.4z" p-id="49964" fill="#1976d2"></path><path d="M753.408 65.28H272c-68.80256 0-68.80256 65.408-68.80256 65.408v636.48256c0 63.73888 68.80256 63.73888 68.80256 63.73888h618.94656c68.80256 0 68.80256-63.73888 68.80256-63.73888V256.64L753.408 65.28z m-127.32928 661.00224h-89.21088V570.1632h89.21088v156.11904z m171.88864-207.81056a22.2976 22.2976 0 0 1-31.53408 0.54272l-6.53312-6.52288v191.48288a22.2976 22.2976 0 0 1-22.2976 22.30272h-66.90816v-44.60544h44.60544V467.88096L581.4784 334.06976 447.66208 467.88096v213.79072h44.60544v44.60544H425.35936a22.30272 22.30272 0 0 1-22.30272-22.30272v-191.48288l-6.53824 6.52288a22.30272 22.30272 0 0 1-31.53408-31.53408l200.71936-200.72448a22.31296 22.31296 0 0 1 31.5392 0l200.72448 200.72448a22.3232 22.3232 0 0 1 0 30.99136z m-44.55936-261.76512V129.08544L890.88 256.70656h-137.472z" p-id="49965" fill="#1976d2"></path></svg>