<?xml version="1.0" standalone="no"?><!DOCTYPE svg PUBLIC "-//W3C//DTD SVG 1.1//EN" "http://www.w3.org/Graphics/SVG/1.1/DTD/svg11.dtd"><svg t="1710144714114" class="icon" viewBox="0 0 1024 1024" version="1.1" xmlns="http://www.w3.org/2000/svg" p-id="37620" xmlns:xlink="http://www.w3.org/1999/xlink" width="200" height="200"><path d="M823.466667 119.466667h-640c-34.133333 0-59.733333 25.6-59.733334 59.733333v665.6c0 34.133333 25.6 59.733333 59.733334 59.733333h341.333333v-64h-341.333333V354.133333h631.466666v153.6h64V179.2c0-34.133333-25.6-59.733333-55.466666-59.733333z m-8.533334 170.666666H183.466667V183.466667h631.466666v106.666666z" fill="#1976d2" p-id="37621"></path><path d="M281.6 443.733333h435.2v64H281.6zM281.6 593.066667h260.266667v64H281.6zM989.866667 541.866667c-132.266667 123.733333-243.2 294.4-277.333334 384L512 721.066667l51.2-42.666667 115.2 89.6c46.933333-55.466667 153.6-166.4 298.666667-256l12.8 29.866667z" fill="#1976d2" p-id="37622"></path></svg>