<?xml version="1.0" standalone="no"?><!DOCTYPE svg PUBLIC "-//W3C//DTD SVG 1.1//EN" "http://www.w3.org/Graphics/SVG/1.1/DTD/svg11.dtd"><svg t="1710143266135" class="icon" viewBox="0 0 1024 1024" version="1.1" xmlns="http://www.w3.org/2000/svg" p-id="1939" xmlns:xlink="http://www.w3.org/1999/xlink" width="200" height="200"><path d="M520.832 97.834667a42.666667 42.666667 0 0 1 0 60.330666L465.664 213.333333H533.333333c198.506667 0 362.666667 164.16 362.666667 362.666667s-164.16 362.666667-362.666667 362.666667S170.666667 774.506667 170.666667 576a42.666667 42.666667 0 1 1 85.333333 0c0 151.36 125.973333 277.333333 277.333333 277.333333s277.333333-125.973333 277.333334-277.333333-125.973333-277.333333-277.333334-277.333333h-67.669333l55.168 55.168a42.666667 42.666667 0 1 1-60.330667 60.330666l-128-128a42.666667 42.666667 0 0 1 0-60.330666l128-128a42.666667 42.666667 0 0 1 60.330667 0z" fill="#000000" p-id="1940"></path></svg>